<?xml version="1.0" encoding="UTF-8"?> <svg xmlns="http://www.w3.org/2000/svg" width="22" height="22" viewBox="0 0 22 22" fill="none"><path d="M7 1.46038C10.03 1.46038 12.5 3.86513 12.5 6.81509C12.5 9.76505 10.03 12.1698 7 12.1698C3.81 12.1698 1.5 9.92082 1.5 6.81509C1.5 3.70936 3.97 1.46038 7 1.46038ZM7 0C3.13 0 0 3.04732 0 6.81509C0 10.9041 3.13 13.6302 7 13.6302C10.87 13.6302 14 10.5829 14 6.81509C14 3.04732 10.87 0 7 0Z" fill="black"></path><path d="M19.0014 21.1744C18.8114 21.1744 18.6214 21.1062 18.4714 20.9602L12.4714 15.1187C12.1814 14.8363 12.1814 14.369 12.4714 14.0867L14.4714 12.1395C14.7614 11.8571 15.2414 11.8571 15.5314 12.1395L21.5314 17.981C21.8214 18.2633 21.8214 18.7307 21.5314 19.013L19.5314 20.9602C19.3814 21.1062 19.1914 21.1744 19.0014 21.1744V21.1744ZM14.0614 14.6027L19.0014 19.4122L19.9414 18.497L15.0014 13.6875L14.0614 14.6027V14.6027Z" fill="black"></path><path d="M12.0372 10.6783L10.9766 11.7109L13.9747 14.6299L15.0354 13.5972L12.0372 10.6783Z" fill="black"></path></svg> 