<?xml version="1.0" encoding="UTF-8"?> <svg xmlns="http://www.w3.org/2000/svg" width="22" height="21" viewBox="0 0 22 21" fill="none"><path d="M10.75 8.5311C9.23 8.5311 8 7.42693 8 6.06242C8 4.69792 9.23 3.59375 10.75 3.59375C12.27 3.59375 13.5 4.69792 13.5 6.06242C13.5 7.42693 12.27 8.5311 10.75 8.5311ZM10.75 4.9403C10.06 4.9403 9.5 5.44301 9.5 6.06242C9.5 6.68184 10.06 7.18455 10.75 7.18455C11.44 7.18455 12 6.68184 12 6.06242C12 5.44301 11.44 4.9403 10.75 4.9403Z" fill="black"></path><path d="M10.7511 19.4811C10.4611 19.4811 10.1911 19.3285 10.0711 19.0951L4.63115 8.61894C3.06115 5.5937 4.52115 1.97597 7.89115 0.566582C11.2611 -0.842805 15.2911 0.467836 16.8611 3.49308C17.7011 5.11792 17.7011 6.98513 16.8611 8.61894L11.4211 19.0861C11.3011 19.3195 11.0311 19.4721 10.7411 19.4721L10.7511 19.4811ZM10.7511 1.34758C10.0111 1.34758 9.25115 1.49121 8.54115 1.78745C5.92115 2.88264 4.78115 5.69244 6.00115 8.05339L10.7611 17.2099L15.5211 8.05339C16.1811 6.78763 16.1811 5.33336 15.5211 4.06761C14.6311 2.353 12.7311 1.34758 10.7511 1.34758Z" fill="black"></path><path d="M20.75 20.2001H0.75C0.34 20.2001 0 19.8948 0 19.5268C0 19.1587 0.34 18.8535 0.75 18.8535H20.75C21.16 18.8535 21.5 19.1587 21.5 19.5268C21.5 19.8948 21.16 20.2001 20.75 20.2001Z" fill="black"></path></svg> 